<?xml version="1.0" encoding="utf-8"?>
<!-- Generator: Adobe Illustrator 15.0.0, SVG Export Plug-In . SVG Version: 6.00 Build 0)  -->
<!DOCTYPE svg PUBLIC "-//W3C//DTD SVG 1.1//EN" "http://www.w3.org/Graphics/SVG/1.1/DTD/svg11.dtd">
<svg version="1.1" id="Capa_1" xmlns="http://www.w3.org/2000/svg" xmlns:xlink="http://www.w3.org/1999/xlink" x="0px" y="0px"
	 width="612px" height="792px" viewBox="0 0 612 792" enable-background="new 0 0 612 792" xml:space="preserve">
<g>
	<g id="Layer_1">
		<g>
			<path fill="#607D8B" d="M502.855,477.41l-13.698-103.69c-0.169-1.218-0.464-2.55-0.862-3.756l-0.603-1.82l-35.561-107.445
				c-0.249-0.743-0.552-1.56-0.854-2.294c-7.017-16.893-121.827-60.156-137.051-57.936l-187.283,27.308
				c-10.344,1.496-18.209,10.485-18.026,21.21c0.202,11.635,9.794,20.904,21.428,20.702l151.709-2.602L219.698,430.19L143.515,541.6
				c-6.709,9.795-5.793,23.287,2.842,32.077c9.812,9.986,25.863,10.129,35.85,0.316l91.443-89.834l-19.002,65.318l-76.779,113.059
				c-7.088,10.523-5.363,25.023,4.529,33.438c10.628,9.045,26.574,7.76,35.619-2.867l93.086-109.393
				c1.331-1.581,2.52-3.456,3.367-5.458l1.474-3.479l95.573-239.416l21.215,51.082l18.288,99.17
				c2.54,13.627,15.349,23.1,29.254,21.263C494.645,504.974,504.756,491.782,502.855,477.41z"/>
			<circle fill="#607D8B" cx="415.744" cy="152.986" r="62.986"/>
			<path fill="#607D8B" d="M415.744,575.3c-34.931,0-63.349,28.418-63.349,63.349s28.419,63.349,63.349,63.349
				c34.931,0,63.349-28.418,63.349-63.349S450.676,575.3,415.744,575.3z M460.314,658.023l-11.185-19.375l11.185-19.375h1.535
				c2.514,5.961,3.906,12.508,3.906,19.375s-1.393,13.413-3.906,19.375H460.314z M433.531,591.917l-6.6,11.43h-22.374l-6.599-11.43
				c5.529-2.113,11.522-3.28,17.785-3.28C422.009,588.637,428,589.804,433.531,591.917z M438.119,638.648l-11.188,19.375h-22.374
				l-11.186-19.375l11.186-19.375h22.374L438.119,638.648z M369.641,619.273h1.534l11.185,19.375l-11.185,19.375h-1.534
				c-2.515-5.961-3.908-12.508-3.908-19.375S367.126,625.235,369.641,619.273z M397.959,685.38l6.599-11.43h22.374l6.6,11.43
				c-5.531,2.113-11.522,3.28-17.787,3.28C409.481,688.661,403.488,687.493,397.959,685.38z"/>
		</g>
	</g>
</g>
</svg>
