<?xml version="1.0" encoding="utf-8"?>
<!-- Generator: Adobe Illustrator 15.0.0, SVG Export Plug-In . SVG Version: 6.00 Build 0)  -->
<!DOCTYPE svg PUBLIC "-//W3C//DTD SVG 1.1//EN" "http://www.w3.org/Graphics/SVG/1.1/DTD/svg11.dtd">
<svg version="1.1" id="Capa_1" xmlns="http://www.w3.org/2000/svg" xmlns:xlink="http://www.w3.org/1999/xlink" x="0px" y="0px"
	 width="961.945px" height="961.945px" viewBox="0 0 961.945 961.945" enable-background="new 0 0 961.945 961.945"
	 xml:space="preserve">
<g>
	<g>
		<path fill="#607D8B" d="M138.822,954.899c0,5.5,4.2,8.301,9.3,6.301l324.2-129.9c5.1-2.1,13.399-2.1,18.599,0l322.9,130
			c5.1,2,9.301-0.8,9.301-6.3V297.7h-684.3V954.899z M515.922,401.6c28.201-30.2,65.301-45.3,111.301-45.3
			c40.101,0,72.8,11.9,97.8,35.6c14.899,14,26.102,34.2,33.602,60.4L693.021,468c-3.898-17-12-30.4-24.3-40.3
			c-12.301-9.9-27.301-14.801-44.899-14.801c-24.302,0-44.101,8.7-59.199,26.2c-15.102,17.5-22.701,45.7-22.701,84.801
			c0,41.5,7.5,71,22.4,88.601c14.899,17.6,34.301,26.399,58.199,26.399c17.602,0,32.801-5.601,45.399-16.801
			c12.701-11.199,21.801-28.8,27.301-52.8l64.199,20.4c-9.799,35.8-26.199,62.398-49.1,79.8c-22.9,17.399-52,26.1-87.199,26.1
			c-43.602,0-79.4-14.898-107.5-44.699c-28.102-29.801-42.101-70.5-42.101-122.101C473.623,474.2,487.723,431.8,515.922,401.6z
			 M205.623,361.9h225v55.5h-158.7v77.7h137v55.5h-137v139.5h-66.3V361.9L205.623,361.9z"/>
		<path fill="#607D8B" d="M849.123,213.2h-48.701l-256-133.2c1.201-4.9,1.9-10.1,1.9-15.4c0-35.6-29-64.6-64.601-64.6
			c-35.6,0-64.6,29-64.6,64.6c0,5.4,0.7,10.7,2,15.8l-258,132.8h-48.3c-15.8,0-28.5,12.8-28.5,28.5c0,15.7,12.8,28.5,28.5,28.5
			h736.301c15.799,0,28.5-12.8,28.5-28.5C877.623,226,864.922,213.2,849.123,213.2z M481.623,29.9c19.1,0,34.6,15.5,34.6,34.6
			c0,0.3,0,0.6,0,0.9c-0.301,10.9-5.6,20.5-13.701,26.7c-5.799,4.4-13,7-20.898,7c-7.8,0-14.9-2.6-20.7-6.9
			c-8.2-6.1-13.5-15.7-13.899-26.6c0-0.4,0-0.7,0-1.1C447.022,45.5,462.522,29.9,481.623,29.9z M226.022,213.2l206.9-106.3
			c11.9,13.6,29.3,22.3,48.8,22.3c19.601,0,37.101-8.8,49-22.6l204.199,106.6H226.022z"/>
	</g>
</g>
</svg>
