<?xml version="1.0" encoding="iso-8859-1"?>
<!-- Generator: Adobe Illustrator 18.0.0, SVG Export Plug-In . SVG Version: 6.00 Build 0)  -->
<!DOCTYPE svg PUBLIC "-//W3C//DTD SVG 1.1//EN" "http://www.w3.org/Graphics/SVG/1.1/DTD/svg11.dtd">
<svg version="1.1" id="Capa_1" xmlns="http://www.w3.org/2000/svg" xmlns:xlink="http://www.w3.org/1999/xlink" x="0px" y="0px"
	 viewBox="0 0 229.758 229.758" style="enable-background:new 0 0 229.758 229.758;" xml:space="preserve">
<path d="M222.258,12.15h-41.695h-23.977c-4.143,0-7.5,3.357-7.5,7.5c0,18.856-15.347,34.195-34.211,34.195
	c-18.854,0-34.191-15.34-34.191-34.195c0-4.143-3.357-7.5-7.5-7.5h-23.98H7.5c-4.143,0-7.5,3.357-7.5,7.5v83.404
	c0,4.143,3.357,7.5,7.5,7.5h34.203v99.553c0,4.143,3.357,7.5,7.5,7.5h131.359c4.143,0,7.5-3.357,7.5-7.5v-99.553h34.195
	c4.143,0,7.5-3.357,7.5-7.5V19.65C229.758,15.508,226.4,12.15,222.258,12.15z M180.563,27.15h34.195v5.848h-52.524
	c0.538-1.906,0.974-3.855,1.28-5.848H180.563z M49.203,27.15h17.05c0.306,1.992,0.741,3.941,1.28,5.848H15V27.15H49.203z
	 M56.703,202.607v-8.848h116.359v8.848H56.703z M180.563,95.555c-4.143,0-7.5,3.357-7.5,7.5v75.705H56.703v-75.705
	c0-4.143-3.357-7.5-7.5-7.5H15V47.998h59.705c8.917,12.6,23.594,20.848,40.169,20.848c16.581,0,31.265-8.248,40.185-20.848h59.699
	v47.557H180.563z"/>
<g>
</g>
<g>
</g>
<g>
</g>
<g>
</g>
<g>
</g>
<g>
</g>
<g>
</g>
<g>
</g>
<g>
</g>
<g>
</g>
<g>
</g>
<g>
</g>
<g>
</g>
<g>
</g>
<g>
</g>
</svg>
